<svg xmlns="http://www.w3.org/2000/svg" viewBox="0 0 2358.07 1889.29"><defs><style>.cls-1{fill:#fff;}</style></defs><g id="katman_2" data-name="katman 2"><g id="katman_2-2" data-name="katman 2"><path class="cls-1" d="M1889.29,207.54,1888.84.46,1681.76,0,1646,35.79l-466.91,467-35.79,35.78-136,136-35.79,35.79L527.55,1154.21,354.84,981.5l-99.92,99.92L476.47,1303,116.68,1662.78H0l.05,226.46,226.47,0V1772.62l359.8-359.8,221.56,221.61,100-100L735.14,1361.8l479.71-479.72,136-136,35.79-35.79,466.91-466.95,35.78-35.79Zm-71.52.05-466.91,467-35.79,35.78-136,136-35.79,35.79L663.56,1361.8l172.66,172.66-28.34,28.34L586.32,1341.24,226.52,1701l-34,34v71.62l.05,48.7H34V1696.74l48.74,0h71.58l34-34L548.05,1303,326.49,1081.42l28.35-28.35,172.71,172.71,479.71-479.71,35.79-35.79,136-136,35.79-35.79L1681.76,71.58l35.78-35.79L1838.32,51l15.24,120.78Z"/><path class="cls-1" d="M2241.4,1662.78,1881.6,1303l221.61-221.61-99.92-99.92-172.76,172.71L1386.65,710.33l-35.79,35.79,479.67,479.66,172.76-172.71,28.34,28.35L1810,1303l359.79,359.75,34,34h71.57l48.7,0v158.59H2165.57V1735l-34-34-359.8-359.8L1550.2,1562.8l-28.35-28.34,172.71-172.66L1214.85,882.08l-35.79,35.79L1623,1361.8l-172.71,172.66,99.92,100,221.61-221.61,359.8,359.8v116.67l226.46,0V1662.78ZM640.53,35.79l35.79,35.79,466.95,467,35.79-35.78L676.32,0l-207,.46-.51,207.08v.05L971.47,710.28l35.79-35.79-466.9-466.9-35.79-35.84L519.75,51Z"/></g></g></svg>